<?xml version="1.0" encoding="UTF-8" standalone="no"?>
<!-- Created with Inkscape (http://www.inkscape.org/) -->

<svg
   version="1.1"
   id="svg1"
   width="555.57599"
   height="453.06897"
   viewBox="0 0 555.576 453.06896"
   xmlns="http://www.w3.org/2000/svg"
   xmlns:svg="http://www.w3.org/2000/svg">
  <defs
     id="defs1" />
  <g
     id="g1"
     transform="translate(-601.70934,-735.43769)">
    <g
       id="group-R5">
      <path
         id="path182"
         d="m 6338.97,2765.63 c -2.37,15.82 -25.3,75.12 -25.3,75.12 l -40.33,-29.26 -9.49,-85.4 59.31,-75.12 c 0,3.16 18.18,98.84 15.81,114.66"
         style="fill:#ffb290;fill-opacity:1;fill-rule:nonzero;stroke:none"
         transform="matrix(0.13333333,0,0,-0.13333333,0,1188.5067)" />
      <path
         id="path183"
         d="m 5267.52,2734.16 -135.97,156.56 c 0,0 23.21,189.27 128.79,221.67 12,3.67 234.26,-31.47 234.26,-31.47 l -227.08,-346.76"
         style="fill:#ffac33;fill-opacity:1;fill-rule:nonzero;stroke:none"
         transform="matrix(0.13333333,0,0,-0.13333333,0,1188.5067)" />
      <path
         id="path184"
         d="m 5559.4,2794.81 c 149.81,277.84 152.32,524.88 69.62,512.08 -82.72,-12.79 -265.85,-167.31 -389.9,-396.2 -30.39,-56.07 -173.33,-329.95 -38.64,-394.84 134.7,-64.88 293.06,156.83 358.92,278.96"
         style="fill:#ff9433;fill-opacity:1;fill-rule:nonzero;stroke:none"
         transform="matrix(0.13333333,0,0,-0.13333333,0,1188.5067)" />
      <path
         id="path185"
         d="m 5541.91,2763.86 -86.24,246.12 c 0,0 -186.31,-89.49 -277.15,-479.73 6.32,-5.53 13.61,-10.37 21.96,-14.4 123.95,-59.71 267.92,123.26 341.43,248.01"
         style="fill:#f96f23;fill-opacity:1;fill-rule:nonzero;stroke:none"
         transform="matrix(0.13333333,0,0,-0.13333333,0,1188.5067)" />
      <path
         id="path186"
         d="m 5757.01,2615.88 c 308.41,-30.84 544.79,-232.99 544.79,-232.99 l 77.11,-258.63 c 0,0 -247.92,-33.18 -380.76,16.65 -132.86,49.81 -241.14,474.97 -241.14,474.97"
         style="fill:#28181f;fill-opacity:1;fill-rule:nonzero;stroke:none"
         transform="matrix(0.13333333,0,0,-0.13333333,0,1188.5067)" />
      <path
         id="path187"
         d="m 5450.13,1879.95 c -18.98,80.66 -204.02,502.94 -194.53,519.54 9.48,16.61 170.8,137.6 170.8,137.6 l 21.36,47.45 c 0,0 90.15,61.68 142.34,71.17 52.19,9.49 132.86,-35.58 132.86,-35.58 0,0 282.3,-18.99 313.14,-215.89 30.84,-196.91 23.73,-377.21 23.73,-377.21 l -609.7,-147.08"
         style="fill:#3f2b33;fill-opacity:1;fill-rule:nonzero;stroke:none"
         transform="matrix(0.13333333,0,0,-0.13333333,0,1188.5067)" />
      <path
         id="path188"
         d="m 5163.07,1827.75 c -175.53,31.22 -123.36,405.68 97.27,578.86 220.63,173.19 163.69,-296.54 163.69,-296.54 0,0 -154.2,-301.29 -260.96,-282.32"
         style="fill:#3f2b33;fill-opacity:1;fill-rule:nonzero;stroke:none"
         transform="matrix(0.13333333,0,0,-0.13333333,0,1188.5067)" />
      <path
         id="path189"
         d="m 5584.2,2512.48 -68.15,113.33 c -36.65,-19.62 -68.29,-41.27 -68.29,-41.27 l -21.36,-47.45 c 0,0 -114.47,-85.86 -156.22,-122.84 193.12,21.35 314.02,98.23 314.02,98.23"
         style="fill:#28181f;fill-opacity:1;fill-rule:nonzero;stroke:none"
         transform="matrix(0.13333333,0,0,-0.13333333,0,1188.5067)" />
      <path
         id="path190"
         d="m 5772.77,2360.45 c -2.41,0 -4.45,1.86 -4.63,4.31 l -9.49,129.28 c -0.19,2.57 1.74,4.8 4.3,4.98 2.54,0.17 4.78,-1.73 4.97,-4.29 l 9.49,-129.29 c 0.18,-2.57 -1.74,-4.8 -4.3,-4.98 l -0.34,-0.01"
         style="fill:#28181f;fill-opacity:1;fill-rule:nonzero;stroke:none"
         transform="matrix(0.13333333,0,0,-0.13333333,0,1188.5067)" />
      <path
         id="path191"
         d="m 5707.54,2309.44 -1.84,0.37 c -123.54,52.95 -180.52,91.39 -181.08,91.77 -2.12,1.45 -2.67,4.34 -1.23,6.46 1.44,2.12 4.33,2.66 6.46,1.23 0.55,-0.38 56.93,-38.37 179.51,-90.91 2.36,-1.02 3.45,-3.74 2.44,-6.1 -0.75,-1.76 -2.47,-2.82 -4.26,-2.82"
         style="fill:#28181f;fill-opacity:1;fill-rule:nonzero;stroke:none"
         transform="matrix(0.13333333,0,0,-0.13333333,0,1188.5067)" />
      <path
         id="path192"
         d="m 5452.51,2579.8 c 43.61,-43.74 69.59,-115.46 102.8,-129.69 l 178.71,-109.13 14.24,6.33 -18.99,197.69 c 0,0 26.9,17.39 22.15,31.63 -2.63,7.89 -28.12,33.3 -50.32,54.37 -27.61,12.67 -75.77,31.11 -111,24.71 -50.27,-9.14 -135.72,-66.68 -141.95,-70.9 1.3,-1.68 2.71,-3.36 4.36,-5.01"
         style="fill:#f2e6dd;fill-opacity:1;fill-rule:nonzero;stroke:none"
         transform="matrix(0.13333333,0,0,-0.13333333,0,1188.5067)" />
      <path
         id="path193"
         d="m 5614.71,2645.64 c -2.01,4.02 -4.37,7.76 -7,11.3 -6.09,0.12 -12.03,-0.22 -17.61,-1.23 -50.27,-9.14 -135.72,-66.68 -141.95,-70.9 1.3,-1.68 2.71,-3.36 4.36,-5.01 28.81,-28.91 49.94,-70.03 70.53,-98.71 2.24,1.03 4.47,2.08 6.69,3.21 73.21,36.69 111.25,108.93 84.98,161.34"
         style="fill:#ddcbbf;fill-opacity:1;fill-rule:nonzero;stroke:none"
         transform="matrix(0.13333333,0,0,-0.13333333,0,1188.5067)" />
      <path
         id="path194"
         d="m 5624.8,493.699 c -11.15,-41.117 -53.08,-159.738 -53.08,-159.738 l -18.1,-77.492 -3.97,-34.797 h -178.71 l 4.35,17.387 c 0,0 95.37,23.73 100.62,33.222 5.26,9.489 32.89,72.75 33.93,77.5 1.05,4.739 -0.8,202.438 -0.8,202.438 l 115.76,-58.52"
         style="fill:#3f2b33;fill-opacity:1;fill-rule:nonzero;stroke:none"
         transform="matrix(0.13333333,0,0,-0.13333333,0,1188.5067)" />
      <path
         id="path195"
         d="m 6662.46,251.723 c -14.24,0 -84.2,14.226 -88.95,14.226 -4.74,0 -47.38,37.961 -50.14,42.703 -2.77,4.75 -41.44,52.2 -42.62,56.95 -1.18,4.73 -36.6,202.437 -36.6,202.437 L 6307.3,539.563 c 99.57,-131.274 115.65,-221.422 115.65,-221.422 l 16.85,-99.629 h 260.96 c 0,0 56.08,45.859 56.88,55.347 0.81,9.493 -80.95,-22.136 -95.18,-22.136"
         style="fill:#3f2b33;fill-opacity:1;fill-rule:nonzero;stroke:none"
         transform="matrix(0.13333333,0,0,-0.13333333,0,1188.5067)" />
      <path
         id="path196"
         d="M 6107.27,1614.25 5682.62,731.73 c 540.9,-90.16 926.41,402.11 926.41,402.11 l -501.76,480.41"
         style="fill:#28181f;fill-opacity:1;fill-rule:nonzero;stroke:none"
         transform="matrix(0.13333333,0,0,-0.13333333,0,1188.5067)" />
      <path
         id="path197"
         d="m 6491.6,810.012 c -10.68,-195.711 -39.14,-302.473 -39.14,-302.473 0,0 -24.91,0 -145.91,10.672 -120.99,10.68 -217.07,42.711 -234.86,96.09 -17.8,53.379 -67.61,263.328 -74.73,277.558 -7.12,14.231 -200.16,364.781 -200.16,364.781 l 139.66,460.8 160.14,78.29 c 0,0 156.57,-323.83 195.72,-402.12 39.14,-78.29 241.16,-398.278 258.96,-430.297 17.79,-32.032 -59.68,-153.301 -59.68,-153.301"
         style="fill:#005f99;fill-opacity:1;fill-rule:nonzero;stroke:none"
         transform="matrix(0.13333333,0,0,-0.13333333,0,1188.5067)" />
      <path
         id="path198"
         d="m 6134.12,557.172 c 79.42,215.16 -61.77,736.218 -215.22,1102.318 l -122.1,-402.85 c 0,0 193.04,-350.55 200.16,-364.781 7.12,-14.23 56.93,-224.179 74.73,-277.558 7.67,-23.02 29.93,-42.051 62.43,-57.129"
         style="fill:#034a89;fill-opacity:1;fill-rule:nonzero;stroke:none"
         transform="matrix(0.13333333,0,0,-0.13333333,0,1188.5067)" />
      <path
         id="path199"
         d="m 5655.69,443.832 c -207.78,69.777 -304.56,161.609 -319.03,268.129 -14.48,106.519 172.6,400.349 172.6,400.349 l 108.31,506.88 c 180.5,94.69 259.11,162.59 382.94,82.83 0,0 138.27,-486.86 -95.77,-802.739 0,0 -8.48,-157.941 -39.35,-235.07 -30.87,-77.129 -48.2,-176.301 -60.01,-213.039 -11.83,-36.731 -149.69,-7.34 -149.69,-7.34"
         style="fill:#005f99;fill-opacity:1;fill-rule:nonzero;stroke:none"
         transform="matrix(0.13333333,0,0,-0.13333333,0,1188.5067)" />
      <path
         id="path200"
         d="m 5674.27,1647.72 c 5.95,-202.91 20.21,-478.3 20.21,-478.3 l 249.1,434.14 594.28,-617.779 c -49.74,81.619 -211.01,338.769 -245.54,407.829 -39.15,78.29 -195.72,402.12 -195.72,402.12 l -140.06,-68.47 c -85.01,1.45 -181,-30.9 -282.27,-79.54"
         style="fill:#034a89;fill-opacity:1;fill-rule:nonzero;stroke:none"
         transform="matrix(0.13333333,0,0,-0.13333333,0,1188.5067)" />
      <path
         id="path201"
         d="m 5689.75,611.949 92.55,814.521 -227.97,-103.24 -45.07,-210.92 c 0,0 -187.08,-293.83 -172.6,-400.349 4.93,-36.289 19.43,-70.859 44.6,-103.441 156.91,-15.801 308.49,3.429 308.49,3.429"
         style="fill:#034a89;fill-opacity:1;fill-rule:nonzero;stroke:none"
         transform="matrix(0.13333333,0,0,-0.13333333,0,1188.5067)" />
      <path
         id="path202"
         d="m 5160.7,1055.55 c 217.07,-259.769 448.38,-377.198 469.73,-377.198 21.35,0 277.56,1078.228 277.56,1078.228 0,0 787.63,-835.068 798.31,-838.619 10.67,-3.57 -41.52,215.879 -79.48,251.459 -9.36,8.78 -256.59,213.34 -312.81,285.5 -88.75,113.95 -244.7,498.57 -244.7,498.57 l -577.66,-58.12 c 0,0 -29.66,-274.01 -65.25,-378.4 -9.26,-27.15 -265.7,-461.42 -265.7,-461.42"
         style="fill:#3f2b33;fill-opacity:1;fill-rule:nonzero;stroke:none"
         transform="matrix(0.13333333,0,0,-0.13333333,0,1188.5067)" />
      <path
         id="path203"
         d="m 5545.03,1717.44 c 0,0 -12.06,-303.96 -313.16,-469.72 -4.63,-2.55 -94.89,40.33 -133.7,100.59 325.86,160.36 378.06,395.23 378.06,395.23 l 68.8,-26.1"
         style="fill:#841c30;fill-opacity:1;fill-rule:nonzero;stroke:none"
         transform="matrix(0.13333333,0,0,-0.13333333,0,1188.5067)" />
      <path
         id="path204"
         d="m 5437.27,1651.08 c 213.9,-94.71 705.57,130.44 705.57,130.44 14.98,77.8 -29.89,176.87 -75.89,276.35 0,0 -649.24,-132.85 -653.98,-142.34 -26.89,-64.85 31.63,-150.25 31.63,-150.25 0,0 -6.33,-77.5 -7.33,-114.2"
         style="fill:#9b2334;fill-opacity:1;fill-rule:nonzero;stroke:none"
         transform="matrix(0.13333333,0,0,-0.13333333,0,1188.5067)" />
      <path
         id="path205"
         d="m 5532.32,1725.31 c -12.18,0 -24.57,0.18 -37.25,0.53 -2.56,0.08 -4.58,2.22 -4.51,4.79 0.07,2.55 2.25,4.64 4.78,4.51 247.37,-7.01 399.79,58.26 401.31,58.91 2.34,1.03 5.08,-0.04 6.11,-2.39 1.03,-2.35 -0.04,-5.09 -2.39,-6.11 -1.45,-0.64 -140.45,-60.24 -368.05,-60.24"
         style="fill:#721526;fill-opacity:1;fill-rule:nonzero;stroke:none"
         transform="matrix(0.13333333,0,0,-0.13333333,0,1188.5067)" />
      <path
         id="path206"
         d="m 5567.05,1764.81 c -3.84,0 -7.66,0.05 -11.5,0.18 -2.56,0.08 -4.58,2.22 -4.49,4.79 0.08,2.56 2.03,4.61 4.79,4.5 111.55,-3.49 228.14,46.55 229.3,47.06 2.37,1.02 5.09,-0.05 6.12,-2.41 1.02,-2.36 -0.06,-5.09 -2.42,-6.11 -1.14,-0.5 -111.84,-48.01 -221.8,-48.01"
         style="fill:#721526;fill-opacity:1;fill-rule:nonzero;stroke:none"
         transform="matrix(0.13333333,0,0,-0.13333333,0,1188.5067)" />
      <path
         id="path207"
         d="m 6142.84,1781.52 c 6.17,32.06 2.17,67.74 -7.88,105.56 l -379.63,-236.16 c 195.97,42.9 387.51,130.6 387.51,130.6"
         style="fill:#c11738;fill-opacity:1;fill-rule:nonzero;stroke:none"
         transform="matrix(0.13333333,0,0,-0.13333333,0,1188.5067)" />
      <path
         id="path208"
         d="m 5599.59,1681.21 c -14.61,-379.82 -298.44,-690.788 -298.44,-690.788 -47.93,111.398 -167.28,160.678 -166.54,239.498 0,0 162.53,96.14 241.98,190.98 73.54,87.77 132.63,272.97 132.63,272.97 l 90.37,-12.66"
         style="fill:#9b2334;fill-opacity:1;fill-rule:nonzero;stroke:none"
         transform="matrix(0.13333333,0,0,-0.13333333,0,1188.5067)" />
      <path
         id="path209"
         d="m 5483.63,221.672 h -121.1 c 0,0 -64.24,54.379 -71.01,70.437 -6.77,16.063 53.28,-1.238 84.34,-13.589 31.05,-12.368 107.77,-56.848 107.77,-56.848"
         style="fill:#3f2b33;fill-opacity:1;fill-rule:nonzero;stroke:none"
         transform="matrix(0.13333333,0,0,-0.13333333,0,1188.5067)" />
      <path
         id="path210"
         d="m 5720.68,1755.99 c -241.04,73.87 -284.41,255.34 -136.47,496.53 124.29,202.67 462.91,260.13 462.91,260.13 125.46,-257.81 109.79,-342.56 100.22,-350.98 -8.65,-7.61 -11.4,-16.86 -10.84,-27.64 -19.6,-237.93 -190.66,-447.05 -415.82,-378.04"
         style="fill:#f25e2a;fill-opacity:1;fill-rule:nonzero;stroke:none"
         transform="matrix(0.13333333,0,0,-0.13333333,0,1188.5067)" />
      <path
         id="path211"
         d="m 6060.7,2374.7 c 103.3,254.59 314.19,495.24 314.19,495.24 l -73.17,33.46 -374.86,-464.65 133.84,-64.05"
         style="fill:#ffac33;fill-opacity:1;fill-rule:nonzero;stroke:none"
         transform="matrix(0.13333333,0,0,-0.13333333,0,1188.5067)" />
      <path
         id="path212"
         d="m 5584.21,2252.52 c -55.6,-90.64 -84.17,-172.85 -85.39,-244.08 35.94,-94.83 105.35,-164.63 195.03,-192.38 113.09,-35.01 247.36,-44.06 369.37,87.5 40.48,65.88 66.35,146.37 73.28,230.47 -0.56,10.78 2.19,20.03 10.84,27.64 9.57,8.42 25.24,93.17 -100.22,350.98 0,0 -338.62,-57.46 -462.91,-260.13"
         style="fill:#ff9433;fill-opacity:1;fill-rule:nonzero;stroke:none"
         transform="matrix(0.13333333,0,0,-0.13333333,0,1188.5067)" />
      <path
         id="path213"
         d="m 5769.59,2156.54 c 9.12,-44.42 54.75,-77.52 101.93,-73.92 47.18,3.59 78.04,42.52 68.92,86.93 -9.12,44.42 -54.76,77.52 -101.94,73.93 -47.18,-3.6 -78.03,-42.51 -68.91,-86.94"
         style="fill:#662a12;fill-opacity:1;fill-rule:nonzero;stroke:none"
         transform="matrix(0.13333333,0,0,-0.13333333,0,1188.5067)" />
      <path
         id="path214"
         d="m 6047.12,2512.65 c 0,0 -15.66,-2.67 -41.42,-8.83 101.89,-215.09 111.46,-335.97 103.27,-343.17 -7.62,-6.69 -10.04,-14.84 -9.55,-24.33 -6.09,-74.05 -28.88,-144.92 -64.52,-202.94 -107.43,-115.84 -225.66,-107.87 -325.24,-77.05 -78.96,24.44 -140.08,85.91 -171.72,169.39 1.07,62.73 26.23,135.11 75.18,214.92 59.05,96.29 166,170.82 251.97,219.04 -100.84,-39.59 -218.15,-104.87 -280.88,-207.16 -55.6,-90.64 -84.17,-172.85 -85.39,-244.08 35.94,-94.83 105.35,-164.63 195.03,-192.38 113.09,-35.01 247.36,-44.06 369.37,87.5 40.48,65.88 66.35,146.37 73.28,230.47 -0.56,10.78 2.19,20.03 10.84,27.64 9.57,8.42 25.24,93.17 -100.22,350.98"
         style="fill:#ffac33;fill-opacity:1;fill-rule:nonzero;stroke:none"
         transform="matrix(0.13333333,0,0,-0.13333333,0,1188.5067)" />
      <path
         id="path215"
         d="m 5737.52,2115.08 -3.82,2.64 c 4.7,6.83 472.74,684.56 582.43,777 l 2.99,-3.55 c -109.21,-92.05 -576.89,-769.27 -581.6,-776.09"
         style="fill:#f96f23;fill-opacity:1;fill-rule:nonzero;stroke:none"
         transform="matrix(0.13333333,0,0,-0.13333333,0,1188.5067)" />
      <path
         id="path216"
         d="m 5769.18,2102.46 -3.88,2.55 c 4.52,6.9 453.78,690.93 563.48,783.39 l 2.99,-3.56 c -109.19,-92.03 -558.07,-775.48 -562.59,-782.38"
         style="fill:#f96f23;fill-opacity:1;fill-rule:nonzero;stroke:none"
         transform="matrix(0.13333333,0,0,-0.13333333,0,1188.5067)" />
      <path
         id="path217"
         d="m 5796.09,2077.21 -3.94,2.46 c 4.42,7.07 442.72,708.34 552.45,800.82 l 2.98,-3.56 c -109.16,-92.01 -547.08,-792.66 -551.49,-799.72"
         style="fill:#f96f23;fill-opacity:1;fill-rule:nonzero;stroke:none"
         transform="matrix(0.13333333,0,0,-0.13333333,0,1188.5067)" />
      <path
         id="path218"
         d="m 5830.91,2058.27 -3.99,2.37 c 4.29,7.26 430.07,727.35 539.81,819.85 l 3,-3.56 c -109.15,-91.99 -534.53,-811.4 -538.82,-818.66"
         style="fill:#f96f23;fill-opacity:1;fill-rule:nonzero;stroke:none"
         transform="matrix(0.13333333,0,0,-0.13333333,0,1188.5067)" />
      <path
         id="path219"
         d="m 5326.76,2164.63 c 202.89,8.01 422.29,10.27 422.29,10.27 47.08,8.9 10.28,-275.18 -214.31,-363.75 -9.35,-3.7 -328.96,14.23 -366.92,18.98 -37.96,4.74 -21.35,327.38 158.94,334.5"
         style="fill:#3f2b33;fill-opacity:1;fill-rule:nonzero;stroke:none"
         transform="matrix(0.13333333,0,0,-0.13333333,0,1188.5067)" />
      <path
         id="path220"
         d="m 5540.49,1832.17 c -52.18,86.99 27.47,309.53 109.71,319.01 50.34,5.81 100.14,-82.21 48.86,-178.81 -32.48,-61.19 -158.57,-140.2 -158.57,-140.2"
         style="fill:#28181f;fill-opacity:1;fill-rule:nonzero;stroke:none"
         transform="matrix(0.13333333,0,0,-0.13333333,0,1188.5067)" />
      <path
         id="path221"
         d="m 5580.61,1893.39 c -33.21,180.3 31.63,237.24 53.77,253.06 22.15,15.81 120.21,4.73 120.21,4.73 9.46,-134.08 -72.2,-222.39 -173.98,-257.79"
         style="fill:#f2e6dd;fill-opacity:1;fill-rule:nonzero;stroke:none"
         transform="matrix(0.13333333,0,0,-0.13333333,0,1188.5067)" />
      <path
         id="path222"
         d="m 5825.11,2148.76 78.14,-31.58 c 0,0 53.77,-41.29 54.57,-51.4 0.8,-10.11 -13.02,-29.94 -23.13,-30.74 -10.09,-0.8 -56.73,42.84 -56.73,42.84 l -73.33,16.74 20.48,54.14"
         style="fill:#ffb290;fill-opacity:1;fill-rule:nonzero;stroke:none"
         transform="matrix(0.13333333,0,0,-0.13333333,0,1188.5067)" />
      <path
         id="path223"
         d="m 5783.18,2063.37 47.72,-28.88 c 0,0 23.3,-47.13 22.68,-57.7 -0.62,-10.58 -22.16,-28.89 -32.68,-26.19 -10.51,2.68 -27.54,49.24 -27.54,49.24 l -27.95,13.25 c -17.4,8.25 -25.8,29.98 -17.16,44.38 6.79,11.31 21.8,13.84 34.93,5.9"
         style="fill:#ffb290;fill-opacity:1;fill-rule:nonzero;stroke:none"
         transform="matrix(0.13333333,0,0,-0.13333333,0,1188.5067)" />
      <path
         id="path224"
         d="m 5811.52,2105.32 c 25.38,-11.85 47.05,-21.95 64.33,-33.11 0,0 47.42,-59.48 48.37,-71.93 0.93,-12.44 -17.91,-35.64 -28.82,-33.34 -10.92,2.31 -44.18,61.09 -44.18,61.09 l -57.04,23.86 17.34,53.43"
         style="fill:#ffb290;fill-opacity:1;fill-rule:nonzero;stroke:none"
         transform="matrix(0.13333333,0,0,-0.13333333,0,1188.5067)" />
      <path
         id="path225"
         d="m 5706.34,2157.51 c 52.2,23.73 130.48,47.45 149.47,45.08 18.97,-2.37 52.18,-28.47 78.28,-33.21 26.1,-4.75 30.71,-17.63 23.73,-30.05 -14.24,-25.31 -35.59,-13.45 -35.59,-13.45 l -55.36,18.19 c 0,0 -23.11,-6.52 -31.63,-18.98 -3.41,-4.99 10.21,-12.53 6.05,-18.54 -23.41,-33.82 -55.9,-79.32 -66.15,-86.64 -16.6,-11.85 -125.81,-3.91 -125.81,-3.91 2.58,47.24 6.94,95.38 57.01,141.51"
         style="fill:#ffb290;fill-opacity:1;fill-rule:nonzero;stroke:none"
         transform="matrix(0.13333333,0,0,-0.13333333,0,1188.5067)" />
      <path
         id="path226"
         d="m 6282.17,2877 1.84,38.65 c 0,0 95.71,145.41 103.08,152.78 7.35,7.36 128.83,-53.38 128.83,-53.38 44.17,-62.58 -51.54,-84.67 -51.54,-84.67 l -64.41,-73.62 -58.9,-23.93 -58.9,44.17"
         style="fill:#ffac33;fill-opacity:1;fill-rule:nonzero;stroke:none"
         transform="matrix(0.13333333,0,0,-0.13333333,0,1188.5067)" />
      <path
         id="path227"
         d="m 6213.24,2312.51 c -23.72,85.4 -37.96,210.34 -37.96,210.34 62.11,74.43 140.15,95.36 268.87,-53.77 0,0 88.57,-123.36 39.54,-257.79 -12.26,-33.61 -32.81,-55.75 -56.76,-70.06 -77.4,-46.25 -177.48,0.37 -196.17,88.58 l -17.52,82.7"
         style="fill:#3f2b33;fill-opacity:1;fill-rule:nonzero;stroke:none"
         transform="matrix(0.13333333,0,0,-0.13333333,0,1188.5067)" />
      <path
         id="path228"
         d="m 6191.1,2518.12 c 82.24,-101.23 260.96,-162.9 251.46,-107.55 -9.48,55.35 -123.35,180.29 -159.73,192.95 -36.38,12.65 -91.73,-85.4 -91.73,-85.4"
         style="fill:#f2e6dd;fill-opacity:1;fill-rule:nonzero;stroke:none"
         transform="matrix(0.13333333,0,0,-0.13333333,0,1188.5067)" />
      <path
         id="path229"
         d="m 6210.57,2546.64 c 0,0 4.25,37.9 -22.63,58.46 -5.19,3.96 -30.05,61.68 -31.64,72.75 -1.58,11.08 94.11,115.45 100.43,115.45 6.33,0 40.34,-56.93 40.34,-56.93 l 33.21,-22.14 -0.79,-72.76 19.76,-109.13 c -30.68,-20.87 -66.56,-33.18 -138.68,14.3"
         style="fill:#ffb290;fill-opacity:1;fill-rule:nonzero;stroke:none"
         transform="matrix(0.13333333,0,0,-0.13333333,0,1188.5067)" />
      <path
         id="path230"
         d="m 5470.3,2579.8 c -6.33,64.84 -61.69,120.39 -61.69,120.39 l 153.02,145.31 c 0,0 81.29,-168.83 124.17,-223 22.54,-28.47 -0.8,-77.11 -22.16,-91.34 -89.16,-59.44 -193.34,48.64 -193.34,48.64"
         style="fill:#f96d61;fill-opacity:1;fill-rule:nonzero;stroke:none"
         transform="matrix(0.13333333,0,0,-0.13333333,0,1188.5067)" />
      <path
         id="path231"
         d="m 5693.23,2607.71 c -14.65,-4 -29.38,-10.18 -43.49,-18.85 -31.04,-19.07 -62.04,-44.31 -72.63,-72.28 31.37,-8.55 63.32,-6.63 88.9,10.43 17.98,11.98 34.99,52.51 27.22,80.7"
         style="fill:#ffb290;fill-opacity:1;fill-rule:nonzero;stroke:none"
         transform="matrix(0.13333333,0,0,-0.13333333,0,1188.5067)" />
      <path
         id="path232"
         d="m 5457.25,2632.77 c -47.45,-11.06 -137.6,54.57 -155,83.04 -17.39,28.47 13.81,192.73 94.47,248.09 26.85,18.42 92.16,-257.58 92.16,-257.58 -40.32,-1.01 -48.15,-27.66 -31.63,-73.55"
         style="fill:#562117;fill-opacity:1;fill-rule:nonzero;stroke:none"
         transform="matrix(0.13333333,0,0,-0.13333333,0,1188.5067)" />
      <path
         id="path233"
         d="m 5366.92,2900.57 c 34.18,111.78 127.5,153.3 177.31,136.7 49.83,-16.62 85.41,10.67 85.41,10.67 0,0 7.11,-58.13 -32.03,-79.47 -39.15,-21.36 -230.69,-67.9 -230.69,-67.9"
         style="fill:#562117;fill-opacity:1;fill-rule:nonzero;stroke:none"
         transform="matrix(0.13333333,0,0,-0.13333333,0,1188.5067)" />
      <path
         id="path234"
         d="m 5362.35,2825.73 c 41.17,-50.32 71.17,-97.27 74.34,-106.76 3.16,-9.49 3.16,-37.95 9.49,-44.28 6.33,-6.33 60.89,-61.68 89.35,-75.92 28.47,-14.23 206.4,50.62 192.17,96.47 -14.24,45.87 -86.99,173.98 -112.29,211.94 -25.31,37.96 -75.92,98.05 -99.64,104.38 -23.72,6.33 -93.31,-22.14 -120.21,-63.26 -26.88,-41.12 -47.44,-105.17 -33.21,-122.57"
         style="fill:#ffb290;fill-opacity:1;fill-rule:nonzero;stroke:none"
         transform="matrix(0.13333333,0,0,-0.13333333,0,1188.5067)" />
      <path
         id="path235"
         d="m 5568.75,2709.48 c 44.28,-9.49 109.13,37.96 109.13,37.96 l -39.54,55.35 -57.73,-11.06 -20.56,-21.36 8.7,-60.89"
         style="fill:#33140f;fill-opacity:1;fill-rule:nonzero;stroke:none"
         transform="matrix(0.13333333,0,0,-0.13333333,0,1188.5067)" />
      <path
         id="path236"
         d="m 5635.21,2799.41 -51.8,-9.94 -18.44,-19.15 6.46,-29.94 c 30.18,-1.87 65.37,25.07 79.46,37.08 l -15.68,21.95"
         style="fill:#ffffff;fill-opacity:1;fill-rule:nonzero;stroke:none"
         transform="matrix(0.13333333,0,0,-0.13333333,0,1188.5067)" />
      <path
         id="path237"
         d="m 5423.03,2722.23 c -50.26,32.73 -103.39,-1.89 -68.41,-39.24 34.98,-37.36 98.82,-18.86 98.77,1.33 -0.04,20.17 -30.36,37.91 -30.36,37.91"
         style="fill:#ffb290;fill-opacity:1;fill-rule:nonzero;stroke:none"
         transform="matrix(0.13333333,0,0,-0.13333333,0,1188.5067)" />
      <path
         id="path238"
         d="m 5521.3,2557.26 c 51.01,-29.66 84.76,-15.1 88.97,-11.87 15.42,11.87 30.84,37.96 -3.56,130.48 -3.41,9.17 -35.59,71.17 -34.4,87.78 1.18,16.6 43.89,37.96 64.05,27.29 20.17,-10.69 58.12,-128.12 109.12,-138.79 51.02,-10.68 77.11,32.03 77.11,45.08 0,13.04 -10.67,41.51 -10.67,41.51 0,0 -15.42,-27.28 -29.66,-28.47 -14.24,-1.19 -55.75,18.98 -64.05,32.04 -8.3,13.04 -68.8,72.35 -78.29,77.09 -9.49,4.74 -59.31,-3.56 -67.61,-5.93 -8.31,-2.38 -39.32,-67.93 -41.97,-80.71 -5.94,-28.46 41.35,-135.66 32.25,-151.36 -13.04,-22.54 -41.29,-24.14 -41.29,-24.14"
         style="fill:#562117;fill-opacity:1;fill-rule:nonzero;stroke:none"
         transform="matrix(0.13333333,0,0,-0.13333333,0,1188.5067)" />
      <path
         id="path239"
         d="m 5301.15,990.422 c 0,0 59.5,65.218 125.42,172.348 28.79,137.45 31.16,263.11 9.79,353.23 -17.94,-35.33 -38.23,-69.4 -59.77,-95.1 -79.45,-94.84 -241.98,-190.98 -241.98,-190.98 -0.74,-78.82 118.62,-128.1 166.54,-239.498"
         style="fill:#c11738;fill-opacity:1;fill-rule:nonzero;stroke:none"
         transform="matrix(0.13333333,0,0,-0.13333333,0,1188.5067)" />
      <path
         id="path240"
         d="m 6036.1,1185.73 -1.79,0.36 c -2.36,0.99 -3.48,3.72 -2.5,6.08 11.79,28.28 12.89,197.16 -19.07,288.47 -0.85,2.43 0.43,5.08 2.85,5.92 2.43,0.84 5.08,-0.43 5.92,-2.84 33.26,-95.05 31.38,-265.15 18.88,-295.13 -0.75,-1.78 -2.47,-2.86 -4.29,-2.86"
         style="fill:#034a89;fill-opacity:1;fill-rule:nonzero;stroke:none"
         transform="matrix(0.13333333,0,0,-0.13333333,0,1188.5067)" />
      <path
         id="path241"
         d="m 6118.35,653.539 c -2.54,0 -4.61,2.043 -4.65,4.582 -0.04,2.551 2.01,4.668 4.58,4.711 101.93,1.539 330.66,138.699 332.97,140.09 2.18,1.328 5.05,0.617 6.37,-1.582 1.32,-2.199 0.62,-5.051 -1.58,-6.379 -9.47,-5.711 -233.19,-139.84 -337.63,-141.422 h -0.06"
         style="fill:#034a89;fill-opacity:1;fill-rule:nonzero;stroke:none"
         transform="matrix(0.13333333,0,0,-0.13333333,0,1188.5067)" />
      <path
         id="path242"
         d="m 6233.8,640.879 c -2.14,0 -4.07,1.48 -4.54,3.66 -0.54,2.512 1.05,4.981 3.55,5.531 35.51,7.711 91.85,32.66 92.41,32.922 2.35,1.047 5.1,-0.019 6.13,-2.363 1.05,-2.348 -0.01,-5.09 -2.35,-6.137 -2.34,-1.031 -57.79,-25.582 -94.21,-33.504 l -0.99,-0.109"
         style="fill:#034a89;fill-opacity:1;fill-rule:nonzero;stroke:none"
         transform="matrix(0.13333333,0,0,-0.13333333,0,1188.5067)" />
      <path
         id="path243"
         d="m 5773.59,803.652 c -1.99,0 -3.84,1.297 -4.44,3.309 -0.75,2.461 0.65,5.051 3.1,5.789 59.65,17.992 179.39,135.801 212.06,221.91 0.91,2.4 3.61,3.61 5.99,2.69 2.4,-0.9 3.61,-3.59 2.69,-5.98 -31.72,-83.651 -149.93,-206.972 -218.05,-227.511 l -1.35,-0.207"
         style="fill:#034a89;fill-opacity:1;fill-rule:nonzero;stroke:none"
         transform="matrix(0.13333333,0,0,-0.13333333,0,1188.5067)" />
      <path
         id="path244"
         d="m 5802.03,721.539 -2.02,0.473 c -2.32,1.117 -3.28,3.898 -2.16,6.199 25.12,51.82 99.13,171.598 99.87,172.82 1.35,2.18 4.21,2.848 6.39,1.5 2.19,-1.351 2.86,-4.211 1.51,-6.402 -0.74,-1.188 -74.5,-120.578 -99.41,-171.969 -0.8,-1.648 -2.45,-2.621 -4.18,-2.621"
         style="fill:#034a89;fill-opacity:1;fill-rule:nonzero;stroke:none"
         transform="matrix(0.13333333,0,0,-0.13333333,0,1188.5067)" />
      <path
         id="path245"
         d="m 5643.47,908.559 -1.72,0.339 c -2.38,0.942 -3.54,3.653 -2.59,6.032 56.95,142.94 164.46,637.53 166.93,675.89 0.17,2.56 2.39,4.49 4.94,4.34 2.56,-0.17 4.5,-2.38 4.34,-4.94 -2.49,-38.54 -110.42,-535.26 -167.58,-678.728 -0.72,-1.82 -2.47,-2.933 -4.32,-2.933"
         style="fill:#28181f;fill-opacity:1;fill-rule:nonzero;stroke:none"
         transform="matrix(0.13333333,0,0,-0.13333333,0,1188.5067)" />
      <path
         id="path246"
         d="m 5705.16,1292.88 -1.16,0.16 c -2.49,0.64 -3.98,3.17 -3.34,5.65 0.37,1.43 36.85,142.77 46.2,191.88 0.48,2.52 2.91,4.15 5.43,3.69 2.52,-0.48 4.17,-2.91 3.69,-5.43 -9.4,-49.4 -45.95,-191.04 -46.33,-192.46 -0.53,-2.09 -2.42,-3.49 -4.49,-3.49"
         style="fill:#28181f;fill-opacity:1;fill-rule:nonzero;stroke:none"
         transform="matrix(0.13333333,0,0,-0.13333333,0,1188.5067)" />
      <path
         id="path247"
         d="m 5573.15,1619.46 c -14.82,0 -29.56,0.23 -42.57,0.81 -2.57,0.12 -4.55,2.3 -4.43,4.86 0.12,2.57 2.29,4.52 4.85,4.43 51.37,-2.33 130.46,1.15 131.25,1.18 2.59,0.09 4.74,-1.86 4.85,-4.43 0.11,-2.56 -1.87,-4.73 -4.44,-4.84 -0.59,-0.03 -45.33,-2.01 -89.51,-2.01"
         style="fill:#3f2b33;fill-opacity:1;fill-rule:nonzero;stroke:none"
         transform="matrix(0.13333333,0,0,-0.13333333,0,1188.5067)" />
      <path
         id="path248"
         d="m 5180.47,2078.54 -2.22,0.56 c -2.26,1.23 -3.09,4.05 -1.86,6.3 20.48,37.55 145.84,104.73 342.87,89.9 2.56,-0.19 4.48,-2.43 4.29,-4.98 -0.19,-2.56 -2.38,-4.45 -4.98,-4.28 -196.78,14.79 -317.02,-53.93 -334.02,-85.08 -0.84,-1.56 -2.43,-2.42 -4.08,-2.42"
         style="fill:#28181f;fill-opacity:1;fill-rule:nonzero;stroke:none"
         transform="matrix(0.13333333,0,0,-0.13333333,0,1188.5067)" />
      <path
         id="path249"
         d="m 5336.65,2156.82 -1.75,0.35 c -0.69,0.28 -69.16,28.2 -90.31,29.72 -2.56,0.18 -4.49,2.4 -4.3,4.96 0.18,2.55 2.4,4.44 4.96,4.3 22.63,-1.61 90.29,-29.21 93.15,-30.38 2.39,-0.97 3.52,-3.69 2.55,-6.06 -0.73,-1.8 -2.47,-2.89 -4.3,-2.89"
         style="fill:#28181f;fill-opacity:1;fill-rule:nonzero;stroke:none"
         transform="matrix(0.13333333,0,0,-0.13333333,0,1188.5067)" />
      <path
         id="path250"
         d="m 5436.7,2170.26 -0.41,0.02 c -2.56,0.23 -4.45,2.47 -4.23,5.03 0.07,0.75 6.37,75.76 -5.22,144.97 -0.42,2.53 1.29,4.94 3.82,5.36 2.54,0.41 4.92,-1.29 5.35,-3.82 11.79,-70.4 5.37,-146.55 5.3,-147.31 -0.2,-2.42 -2.23,-4.25 -4.61,-4.25"
         style="fill:#28181f;fill-opacity:1;fill-rule:nonzero;stroke:none"
         transform="matrix(0.13333333,0,0,-0.13333333,0,1188.5067)" />
      <path
         id="path251"
         d="m 5412.17,2393.66 c -1.74,0 -3.42,1 -4.21,2.69 -8.77,18.85 -33.93,69.54 -44.84,77.71 -2.05,1.55 -2.47,4.46 -0.93,6.51 1.55,2.05 4.46,2.47 6.51,0.92 14.74,-11.05 44.35,-74.07 47.68,-81.23 1.09,-2.32 0.08,-5.08 -2.24,-6.17 l -1.97,-0.43"
         style="fill:#28181f;fill-opacity:1;fill-rule:nonzero;stroke:none"
         transform="matrix(0.13333333,0,0,-0.13333333,0,1188.5067)" />
      <path
         id="path252"
         d="m 6497.15,3024.26 -140.78,-155.04 -72.36,46.41 -1.84,-38.63 58.9,-44.17 58.9,23.93 64.41,73.62 c 0,0 95.71,22.09 51.54,84.67 0,0 -7.46,3.73 -18.77,9.21"
         style="fill:#f96f23;fill-opacity:1;fill-rule:nonzero;stroke:none"
         transform="matrix(0.13333333,0,0,-0.13333333,0,1188.5067)" />
      <path
         id="path253"
         d="m 6295.88,2748.23 c 0,0 -53.38,102.01 -61.68,100.82 -8.31,-1.18 -34.41,-14.23 -34.41,-23.72 0,-9.49 36.78,-86.59 36.78,-86.59 l 59.31,9.49"
         style="fill:#ffb290;fill-opacity:1;fill-rule:nonzero;stroke:none"
         transform="matrix(0.13333333,0,0,-0.13333333,0,1188.5067)" />
      <path
         id="path254"
         d="m 6256.39,2707.99 c 0,0 -60.71,97.82 -68.9,96.02 -8.2,-1.78 -33.27,-16.71 -32.57,-26.18 0.69,-9.46 43.03,-83.65 43.03,-83.65 l 58.44,13.81"
         style="fill:#ffb290;fill-opacity:1;fill-rule:nonzero;stroke:none"
         transform="matrix(0.13333333,0,0,-0.13333333,0,1188.5067)" />
      <path
         id="path255"
         d="m 6232.44,2655.21 c 0,0 -80.96,81.85 -88.56,78.29 -7.58,-3.58 -28.7,-23.7 -25.91,-32.78 2.78,-9.07 60.55,-71.99 60.55,-71.99 l 53.92,26.48"
         style="fill:#ffb290;fill-opacity:1;fill-rule:nonzero;stroke:none"
         transform="matrix(0.13333333,0,0,-0.13333333,0,1188.5067)" />
      <path
         id="path256"
         d="m 6356.37,2171.85 h -0.07 c -3.77,0.04 -93.42,2.47 -165.13,111.22 -1.41,2.14 -0.82,5.02 1.33,6.43 2.14,1.41 5.02,0.82 6.43,-1.33 68.84,-104.4 156.63,-107.02 157.51,-107.03 2.56,-0.05 4.61,-2.16 4.57,-4.71 -0.04,-2.55 -2.11,-4.58 -4.64,-4.58"
         style="fill:#28181f;fill-opacity:1;fill-rule:nonzero;stroke:none"
         transform="matrix(0.13333333,0,0,-0.13333333,0,1188.5067)" />
      <path
         id="path257"
         d="m 6293.5,2235.9 c -1.73,0 -42.89,0.59 -92.32,52.45 -1.77,1.86 -1.7,4.79 0.15,6.56 1.86,1.77 4.81,1.7 6.58,-0.15 46.43,-48.7 85.23,-49.56 85.61,-49.56 2.56,-0.03 4.63,-2.11 4.62,-4.67 -0.01,-2.56 -2.08,-4.63 -4.64,-4.63"
         style="fill:#28181f;fill-opacity:1;fill-rule:nonzero;stroke:none"
         transform="matrix(0.13333333,0,0,-0.13333333,0,1188.5067)" />
      <path
         id="path258"
         d="m 5472.67,1923.24 c 0,18.67 -8.23,33.81 -18.39,33.81 -10.15,0 -18.39,-15.14 -18.39,-33.81 0,-18.67 8.24,-33.81 18.39,-33.81 10.16,0 18.39,15.14 18.39,33.81"
         style="fill:#28181f;fill-opacity:1;fill-rule:nonzero;stroke:none"
         transform="matrix(0.13333333,0,0,-0.13333333,0,1188.5067)" />
      <path
         id="path259"
         d="m 5401.46,1917.05 c 0,12.63 -5.57,22.87 -12.43,22.87 -6.88,0 -12.44,-10.24 -12.44,-22.87 0,-12.63 5.56,-22.87 12.44,-22.87 6.86,0 12.43,10.24 12.43,22.87"
         style="fill:#28181f;fill-opacity:1;fill-rule:nonzero;stroke:none"
         transform="matrix(0.13333333,0,0,-0.13333333,0,1188.5067)" />
      <path
         id="path260"
         d="m 6240.61,2425.17 c -9.42,15.53 -23.39,24.28 -31.17,19.56 -7.79,-4.73 -6.47,-21.16 2.97,-36.68 9.42,-15.53 23.38,-24.29 31.17,-19.56 7.78,4.72 6.46,21.15 -2.97,36.68"
         style="fill:#28181f;fill-opacity:1;fill-rule:nonzero;stroke:none"
         transform="matrix(0.13333333,0,0,-0.13333333,0,1188.5067)" />
      <path
         id="path261"
         d="m 6296.19,2384.12 c -8.46,11.94 -20.17,18.18 -26.14,13.93 -5.99,-4.24 -3.99,-17.36 4.47,-29.29 8.45,-11.93 20.16,-18.16 26.15,-13.93 5.99,4.25 3.98,17.37 -4.48,29.29"
         style="fill:#28181f;fill-opacity:1;fill-rule:nonzero;stroke:none"
         transform="matrix(0.13333333,0,0,-0.13333333,0,1188.5067)" />
      <path
         id="path262"
         d="m 5240.7,2890.14 c 124.05,228.88 307.19,383.4 389.9,396.2 28.6,4.42 47,-22.24 52.65,-70.49 -2.47,61.1 -21.8,96.06 -54.23,91.04 -82.72,-12.79 -265.85,-167.31 -389.9,-396.2 -22.72,-41.91 -108.3,-205.51 -93.83,-312.56 -2.5,106.34 74.11,252.69 95.41,292.01"
         style="fill:#ffac33;fill-opacity:1;fill-rule:nonzero;stroke:none"
         transform="matrix(0.13333333,0,0,-0.13333333,0,1188.5067)" />
      <path
         id="path263"
         d="m 5423.2,2705.63 c -1.83,-7.43 -6.58,-12.76 -12.22,-12.76 -7.2,0 -13.04,8.68 -13.04,19.38 0,2.56 0.35,4.98 0.95,7.2 -25.36,6.66 -45.62,-11.52 -27.47,-30.9 21.62,-23.09 61.07,-11.66 61.04,0.82 -0.01,6.17 -4.61,11.97 -9.26,16.26"
         style="fill:#f96d61;fill-opacity:1;fill-rule:nonzero;stroke:none"
         transform="matrix(0.13333333,0,0,-0.13333333,0,1188.5067)" />
      <path
         id="path264"
         d="m 6219.57,1507.59 c -1.09,0 -2.18,0.37 -3.06,1.14 -1,0.87 -100.85,88.46 -171.51,185.82 -1.51,2.07 -1.05,4.98 1.03,6.49 2.07,1.51 4.98,1.04 6.49,-1.04 70.03,-96.48 169.11,-183.41 170.1,-184.27 1.94,-1.69 2.13,-4.63 0.44,-6.56 -0.92,-1.04 -2.2,-1.58 -3.49,-1.58"
         style="fill:#28181f;fill-opacity:1;fill-rule:nonzero;stroke:none"
         transform="matrix(0.13333333,0,0,-0.13333333,0,1188.5067)" />
      <path
         id="path265"
         d="m 6181.61,1602.48 c -1.11,0 -2.22,0.39 -3.11,1.19 -1.31,1.17 -32.13,29 -49.58,51.19 -1.58,2.03 -1.23,4.95 0.79,6.53 2.01,1.59 4.93,1.24 6.53,-0.78 16.95,-21.59 48.16,-49.75 48.47,-50.03 1.92,-1.71 2.06,-4.65 0.35,-6.57 -0.91,-1.01 -2.18,-1.53 -3.45,-1.53"
         style="fill:#28181f;fill-opacity:1;fill-rule:nonzero;stroke:none"
         transform="matrix(0.13333333,0,0,-0.13333333,0,1188.5067)" />
      <path
         id="path266"
         d="m 5217.64,2055.6 -1.19,0.15 c -2.48,0.67 -3.95,3.21 -3.3,5.69 10.69,40.4 25.86,68.64 26.49,69.82 1.24,2.26 4.06,3.1 6.3,1.88 2.26,-1.23 3.1,-4.05 1.88,-6.3 -0.15,-0.29 -15.29,-28.52 -25.68,-67.79 -0.56,-2.08 -2.44,-3.45 -4.5,-3.45"
         style="fill:#28181f;fill-opacity:1;fill-rule:nonzero;stroke:none"
         transform="matrix(0.13333333,0,0,-0.13333333,0,1188.5067)" />
      <path
         id="path267"
         d="m 5655.07,2703.58 c -36.16,-18.8 -62.72,-18.67 -23.31,3.63 39.43,22.3 46.9,8.63 23.31,-3.63"
         style="fill:#f88868;fill-opacity:1;fill-rule:nonzero;stroke:none"
         transform="matrix(0.13333333,0,0,-0.13333333,0,1188.5067)" />
      <path
         id="path268"
         d="m 5457.27,2788.89 c 9.28,39.86 28.58,54.87 58.21,47.01 -29.54,31.99 -69.5,-1.67 -58.21,-47.01"
         style="fill:#33140f;fill-opacity:1;fill-rule:nonzero;stroke:none"
         transform="matrix(0.13333333,0,0,-0.13333333,0,1188.5067)" />
      <path
         id="path269"
         d="m 5556,2859.28 c 11.38,29.96 30.08,37.37 56.53,24.03 -24.72,32.58 -63.95,14.97 -56.53,-24.03"
         style="fill:#33140f;fill-opacity:1;fill-rule:nonzero;stroke:none"
         transform="matrix(0.13333333,0,0,-0.13333333,0,1188.5067)" />
      <path
         id="path270"
         d="m 5488.88,2915.88 c 25.31,-26.89 125.74,-79.08 128.9,-89.36 3.16,-10.28 -52.99,-39.54 -62.47,-34.79 -9.49,4.74 -13.45,18.97 -12.66,22.14 0.79,3.16 12.66,11.07 12.66,11.07 l -66.43,90.94"
         style="fill:#f88868;fill-opacity:1;fill-rule:nonzero;stroke:none"
         transform="matrix(0.13333333,0,0,-0.13333333,0,1188.5067)" />
      <path
         id="path271"
         d="m 5422.55,2792.15 c 4.43,79.71 50.86,89.24 52.65,91.91 1.79,2.68 -15.16,43.72 -29.44,38.37 -14.28,-5.35 -49.97,-50.88 -49.97,-116.89 0,-10.72 25.88,-29.45 26.76,-13.39"
         style="fill:#562117;fill-opacity:1;fill-rule:nonzero;stroke:none"
         transform="matrix(0.13333333,0,0,-0.13333333,0,1188.5067)" />
      <path
         id="path272"
         d="m 5620.14,2917.53 c -68.87,29.34 -97.57,-8.24 -100.61,-8.72 -3.04,-0.48 -29.94,31.85 -19.08,42.39 10.85,10.55 64.98,23.48 120.39,-4.12 8.99,-4.47 13.18,-35.47 -0.7,-29.55"
         style="fill:#562117;fill-opacity:1;fill-rule:nonzero;stroke:none"
         transform="matrix(0.13333333,0,0,-0.13333333,0,1188.5067)" />
      <path
         id="path273"
         d="m 6835.25,2208.62 c -21.08,-23.91 -52.03,-22.82 -61.62,-23.87 -9.59,-1.06 -44.33,-15.01 -58.42,-4.84 -14.08,10.17 19.84,21.22 36.7,24.62 23.28,4.7 33.62,21.12 33.62,21.12 0,0 76.15,12.96 49.72,-17.03"
         style="fill:#ffb290;fill-opacity:1;fill-rule:nonzero;stroke:none"
         transform="matrix(0.13333333,0,0,-0.13333333,0,1188.5067)" />
      <path
         id="path274"
         d="m 6858.81,2228.83 c 27.1,27.71 1.83,40.49 1.83,40.49 l -45.7,17.86 c 0,0 -29.35,26.59 -45.72,14.07 -12.25,-9.36 -19.85,-54.4 -14.55,-67.02 5.31,-12.63 31.67,-9.93 43.01,-15.89 11.33,-5.96 10.28,-41.54 61.13,10.49"
         style="fill:#ffb290;fill-opacity:1;fill-rule:nonzero;stroke:none"
         transform="matrix(0.13333333,0,0,-0.13333333,0,1188.5067)" />
      <path
         id="path275"
         d="m 6666.68,2265.32 c 2.58,-25.28 105.41,-45 112.6,-40.52 7.2,4.47 -5.36,27.33 -21.79,25.87 -29.71,-2.63 -92.22,28.32 -90.81,14.65"
         style="fill:#ffb290;fill-opacity:1;fill-rule:nonzero;stroke:none"
         transform="matrix(0.13333333,0,0,-0.13333333,0,1188.5067)" />
      <path
         id="path276"
         d="m 6681.55,2331.18 c -6.07,-24.76 85.17,-81.34 93.53,-79.71 8.35,1.63 5.32,27.76 -10.59,31.91 -15.91,4.14 -79.95,60.02 -82.94,47.8"
         style="fill:#ffb290;fill-opacity:1;fill-rule:nonzero;stroke:none"
         transform="matrix(0.13333333,0,0,-0.13333333,0,1188.5067)" />
      <path
         id="path277"
         d="m 6724.22,2359.25 c -10.09,-22.28 64.36,-89.86 72.41,-89.66 8.03,0.2 9.93,25.21 -4.08,31.62 -14.01,6.42 -63.35,69.02 -68.33,58.04"
         style="fill:#ffb290;fill-opacity:1;fill-rule:nonzero;stroke:none"
         transform="matrix(0.13333333,0,0,-0.13333333,0,1188.5067)" />
      <path
         id="path278"
         d="m 6667.47,1235.2 c -103.84,119.33 -68.2,229.37 -13.95,285.16 54.24,55.79 136.39,20.15 136.39,20.15 L 6667.47,1235.2"
         style="fill:#dbb48a;fill-opacity:1;fill-rule:nonzero;stroke:none"
         transform="matrix(0.13333333,0,0,-0.13333333,0,1188.5067)" />
      <path
         id="path279"
         d="m 7847.12,3218.97 c -25.75,48.82 -45.78,39.59 -45.78,39.59 0,0 -18.59,73.9 -105.84,69.94 -87.23,-3.96 -80.08,-42.23 -80.08,-42.23 0,0 -91.55,-15.84 -130.16,-101.62 -38.61,-85.78 20.02,-126.7 20.02,-126.7 0,0 -52.83,-96.66 102.86,-145.64 l 42.3,6.75 c 117.27,13.2 136.61,138.89 136.61,138.89 0,0 85.81,112.18 60.07,161.02"
         style="fill:#662a12;fill-opacity:1;fill-rule:nonzero;stroke:none"
         transform="matrix(0.13333333,0,0,-0.13333333,0,1188.5067)" />
      <path
         id="path280"
         d="m 7779.07,3163.55 c -88.6,0 -160.41,60.88 -160.41,135.99 l 0.03,0.81 c -4.46,-7.76 -3.27,-14.08 -3.27,-14.08 0,0 -91.55,-15.84 -130.16,-101.62 -38.61,-85.78 20.02,-126.7 20.02,-126.7 0,0 -52.83,-96.66 102.86,-145.64 l 43.07,9.08 c 117.28,13.19 135.84,136.56 135.84,136.56 0,0 50.85,66.51 62.49,119.4 -21.27,-8.83 -45.19,-13.8 -70.47,-13.8"
         style="fill:#4f1d0c;fill-opacity:1;fill-rule:nonzero;stroke:none"
         transform="matrix(0.13333333,0,0,-0.13333333,0,1188.5067)" />
      <path
         id="path281"
         d="m 7469.88,2420.8 -95.31,-11.63 c 0,0 -109.26,-160.4 -255.72,-181.33 0,0 -144.13,-106.93 -251.07,-34.86 -106.93,72.06 62.76,216.19 269.67,238.28 0,0 100.86,185.92 163.63,216.14 159.63,203.8 262.95,201.15 262.95,201.15 l -94.15,-427.75"
         style="fill:#f4e7d4;fill-opacity:1;fill-rule:nonzero;stroke:none"
         transform="matrix(0.13333333,0,0,-0.13333333,0,1188.5067)" />
      <path
         id="path282"
         d="M 7590.77,522.672 C 7056.61,649.031 6855,885.32 6827.1,916.711 c -27.89,31.391 -13.95,76.719 -13.95,76.719 0,0 -226.66,247.58 -226.66,296.39 0,48.82 1799.33,-397.519 1799.33,-397.519 0,0 -470.76,-446.34 -795.05,-369.629"
         style="fill:#c60924;fill-opacity:1;fill-rule:nonzero;stroke:none"
         transform="matrix(0.13333333,0,0,-0.13333333,0,1188.5067)" />
      <path
         id="path283"
         d="m 7592.14,855.41 c 112.21,-95.211 340.34,-282.418 359.75,-304.75 19.41,-22.328 154.35,-192.539 154.35,-192.539 0,0 22.24,68.348 3.32,97.641 -18.94,29.289 -80.41,99.988 -96.59,118.597 -16.18,18.614 -37.61,62.051 -37.61,62.051 l -78.8,22.981 -214.69,329.578 -89.73,-133.559"
         style="fill:#3f2b33;fill-opacity:1;fill-rule:nonzero;stroke:none"
         transform="matrix(0.13333333,0,0,-0.13333333,0,1188.5067)" />
      <path
         id="path284"
         d="m 7287.39,892.301 285.94,-407.981 31.38,-122.05 -10.46,-108.098 -73.23,-34.871 h 122.05 l 17.43,111.578 31.39,104.613 -45.33,45.328 -97.64,167.379 -97.63,362.661 -163.9,-118.559"
         style="fill:#3f2b33;fill-opacity:1;fill-rule:nonzero;stroke:none"
         transform="matrix(0.13333333,0,0,-0.13333333,0,1188.5067)" />
      <path
         id="path285"
         d="m 6586.49,1289.82 c 55.79,3.49 261.53,-149.94 271.99,-156.91 10.46,-6.98 20.92,-80.2 48.82,-101.13 27.9,-20.92 387.06,-251.069 631.16,-331.268 244.09,-80.211 589.32,-17.43 700.9,20.929 111.58,38.36 111.58,59.27 122.05,76.7 10.46,17.449 20.92,38.359 20.92,38.359 0,0 101.12,48.82 108.1,69.75 6.98,20.922 -237.12,491.67 -432.4,707.87 -195.27,216.2 -334.75,495.17 -355.68,613.72 l -212.71,94.15 C 6860.81,2102.31 6586.49,1289.82 6586.49,1289.82"
         style="fill:#ed1d31;fill-opacity:1;fill-rule:nonzero;stroke:none"
         transform="matrix(0.13333333,0,0,-0.13333333,0,1188.5067)" />
      <path
         id="path286"
         d="m 7374.57,2409.17 95.31,11.63 32.16,173.22 -13.56,122.02 c 0,0 -124.21,-208.29 -422.86,-519.17 32.08,15.3 53.23,30.97 53.23,30.97 146.46,20.93 255.72,181.33 255.72,181.33"
         style="fill:#e8d3b8;fill-opacity:1;fill-rule:nonzero;stroke:none"
         transform="matrix(0.13333333,0,0,-0.13333333,0,1188.5067)" />
      <path
         id="path287"
         d="m 7704.35,2217.71 c -123.66,88.4 -258.69,87.74 -258.69,87.74 32.47,49.4 27.37,89.97 5.63,124.65 0,0 -129.03,38.36 -97.64,146.45 31.38,108.1 125.53,251.07 230.15,285.94 104.6,34.87 251.06,6.97 275.47,-69.74 24.41,-76.71 12.46,-179.22 -62.77,-251.07 -129.01,-123.2 -80.2,-281.29 -92.15,-323.97"
         style="fill:#f4e7d4;fill-opacity:1;fill-rule:nonzero;stroke:none"
         transform="matrix(0.13333333,0,0,-0.13333333,0,1188.5067)" />
      <path
         id="path288"
         d="m 6911.94,960.98 c -2.07,0 -3.94,1.422 -4.42,3.52 -47.06,203.92 -17.25,380.4 16.05,492.55 36.09,121.56 84.05,196.02 84.53,196.75 1.37,2.11 4.19,2.7 6.29,1.34 2.11,-1.38 2.72,-4.2 1.34,-6.3 -0.47,-0.73 -47.82,-74.31 -83.53,-194.72 -32.93,-111.02 -62.39,-285.73 -15.82,-487.569 0.57,-2.449 -0.96,-4.891 -3.41,-5.461 l -1.03,-0.11"
         style="fill:#c60924;fill-opacity:1;fill-rule:nonzero;stroke:none"
         transform="matrix(0.13333333,0,0,-0.13333333,0,1188.5067)" />
      <path
         id="path289"
         d="m 6863.13,1074.88 c -1.98,0 -3.81,1.31 -4.37,3.32 -34.82,122.98 15.73,318.91 16.24,320.87 0.64,2.44 3.13,3.9 5.55,3.25 2.43,-0.63 3.9,-3.12 3.26,-5.55 -0.51,-1.94 -50.42,-195.51 -16.29,-316.09 0.68,-2.42 -0.73,-4.94 -3.15,-5.62 l -1.24,-0.18"
         style="fill:#c60924;fill-opacity:1;fill-rule:nonzero;stroke:none"
         transform="matrix(0.13333333,0,0,-0.13333333,0,1188.5067)" />
      <path
         id="path290"
         d="m 7720.9,2160.53 c -8.96,25.85 -15.24,48.59 -18.55,67.31 l -212.71,94.15 c -464.29,-162.19 -735.31,-647.55 -845.36,-890.44 302.76,143.33 681.47,-277.72 681.47,-277.72 0,0 -59.28,571.87 122.05,673.01 159.66,89.04 130.11,324.02 273.1,333.69"
         style="fill:#c60924;fill-opacity:1;fill-rule:nonzero;stroke:none"
         transform="matrix(0.13333333,0,0,-0.13333333,0,1188.5067)" />
      <path
         id="path291"
         d="m 6607.15,1445.78 c 198.76,317.33 617.48,-93.19 617.48,-93.19 0,0 -59.28,383.58 167.38,530.04 226.65,146.45 111.58,101.12 62.76,118.55 -48.82,17.44 237.12,237.13 237.12,237.13 0,0 -139.48,90.66 -254.55,87.18 -115.08,-3.5 -355.68,-191.8 -401.02,-247.59 -45.33,-55.79 -237.11,-153.43 -299.89,-233.63 1.16,-105.39 -129.28,-398.49 -129.28,-398.49"
         style="fill:#f4e7d4;fill-opacity:1;fill-rule:nonzero;stroke:none"
         transform="matrix(0.13333333,0,0,-0.13333333,0,1188.5067)" />
      <path
         id="path292"
         d="m 7713.98,2279.77 c 0,0 -93,96.08 -257.27,69.73 l -9.3,-23.24 c 142.12,18.66 269.67,-158.09 269.67,-158.09 l -3.1,111.6"
         style="fill:#633e38;fill-opacity:1;fill-rule:nonzero;stroke:none"
         transform="matrix(0.13333333,0,0,-0.13333333,0,1188.5067)" />
      <path
         id="path293"
         d="m 7583.8,2862.49 c -15.31,-5.1 -32.76,-9.91 -47.46,-19.2 25.88,-112.6 138.38,-85.87 189.05,30.95 -46.51,6.42 -97.73,2.88 -141.59,-11.75"
         style="fill:#ffb290;fill-opacity:1;fill-rule:nonzero;stroke:none"
         transform="matrix(0.13333333,0,0,-0.13333333,0,1188.5067)" />
      <path
         id="path294"
         d="m 7562.86,2855.56 c 57.34,32.54 26.75,174.31 26.75,174.31 l 116.62,-37.19 c 0,0 -30.2,-81.73 -8.51,-115.83 -58.23,-32.49 -103.96,-32.81 -134.86,-21.29"
         style="fill:#ffb290;fill-opacity:1;fill-rule:nonzero;stroke:none"
         transform="matrix(0.13333333,0,0,-0.13333333,0,1188.5067)" />
      <path
         id="path295"
         d="m 7589.61,3029.87 c 0,0 17.41,-80.78 1.28,-134.38 15.95,-3.8 32.8,-5.88 50.25,-5.88 17.35,0 34.11,2.06 49.98,5.82 -6.53,38.65 15.11,97.25 15.11,97.25 l -116.62,37.19"
         style="fill:#f96d61;fill-opacity:1;fill-rule:nonzero;stroke:none"
         transform="matrix(0.13333333,0,0,-0.13333333,0,1188.5067)" />
      <path
         id="path296"
         d="m 7731.32,2909.05 c -87.52,27.93 -128.53,65.45 -144.87,119.97 -3.91,13.07 -6.4,27.11 -7.79,42.24 54.06,80.5 111.96,202.32 182.47,167.33 25.98,-12.89 60.08,-111.83 44.12,-198.75 -12.61,-68.72 -73.93,-130.79 -73.93,-130.79"
         style="fill:#ffb290;fill-opacity:1;fill-rule:nonzero;stroke:none"
         transform="matrix(0.13333333,0,0,-0.13333333,0,1188.5067)" />
      <path
         id="path297"
         d="m 6970.71,2575.85 c 166.6,1.6 254.72,208.25 257.92,232.29 3.2,24.02 148.98,123.34 148.98,123.34 0,0 52.75,12.2 76.77,89.1 24.03,76.89 117.07,122.37 117.07,122.37 l 30.43,44.85 c 0,0 -133.55,14.1 -179.41,-189.03 -8.82,-39.06 -152.19,-89.72 -187.43,-115.34 -35.25,-25.64 -19.23,-76.9 -19.23,-76.9 0,0 -100.92,-198.64 -309.18,-174.62 11.81,-27.13 27,-51.29 64.08,-56.06"
         style="fill:#4b90e2;fill-opacity:1;fill-rule:nonzero;stroke:none"
         transform="matrix(0.13333333,0,0,-0.13333333,0,1188.5067)" />
      <path
         id="path298"
         d="m 7742.08,2871.49 c -28.96,-79.68 -91.71,-195.67 -188.08,-200.55 -20.31,-1.02 -34.54,4.63 -43.29,17.31 -20.73,30.03 6.43,107.81 20.56,153.41 -9.09,-2.41 -22.53,-6.46 -28.7,-12 -12.04,-45.24 -23.83,-119.14 -3.11,-149.16 10.7,-15.5 27.51,-23.33 50.04,-23.33 1.7,0 3.43,0.04 5.19,0.13 104.06,5.27 170.7,128.17 200.77,211.2 -4.41,1.09 -8.85,2.11 -13.38,2.99"
         style="fill:#e53841;fill-opacity:1;fill-rule:nonzero;stroke:none"
         transform="matrix(0.13333333,0,0,-0.13333333,0,1188.5067)" />
      <path
         id="path299"
         d="m 7776.74,2574.23 c 172.04,-9.3 358.01,285.94 358.01,285.94 l 72.06,46.49 c 0,0 151.12,13.95 185.98,185.98 34.87,172.03 4.65,258.04 -109.26,190.62 -113.91,-67.41 -169.71,-202.24 -169.71,-202.24 0,0 -292.8,-61.65 -346.27,-194.16 -53.47,-132.51 9.19,-312.63 9.19,-312.63"
         style="fill:#f4e7d4;fill-opacity:1;fill-rule:nonzero;stroke:none"
         transform="matrix(0.13333333,0,0,-0.13333333,0,1188.5067)" />
      <path
         id="path300"
         d="m 8337.35,3291.48 c 3.77,37.76 33.83,56.65 42.21,63.9 8.37,7.27 31.82,43.78 52.06,42.61 20.23,-1.16 -4.43,-34.23 -18.09,-48.55 -18.89,-19.78 -17.56,-43.03 -17.56,-43.03 0,0 -63.35,-62.26 -58.62,-14.93"
         style="fill:#ffb290;fill-opacity:1;fill-rule:nonzero;stroke:none"
         transform="matrix(0.13333333,0,0,-0.13333333,0,1188.5067)" />
      <path
         id="path301"
         d="m 8332.62,3244.15 c -5.75,44.14 9.6,67.37 9.6,67.37 l 55.73,5.44 c 0,0 12.57,-2.45 34.09,3.26 29.01,7.71 38.69,3.21 41.23,-14.31 2.55,-17.52 -16.31,-54.09 -26.13,-66.4 -9.82,-12.3 -37.85,-1.05 -52.14,-4.1 -14.31,-3.05 -58.18,-23.52 -62.38,8.74"
         style="fill:#ffb290;fill-opacity:1;fill-rule:nonzero;stroke:none"
         transform="matrix(0.13333333,0,0,-0.13333333,0,1188.5067)" />
      <path
         id="path302"
         d="m 8569.48,3309.55 c -11.93,27.82 -132.01,16.21 -138.32,8.76 -6.3,-7.45 15.71,-29.24 33.25,-22.15 31.71,12.81 111.52,-1.66 105.07,13.39"
         style="fill:#ffb290;fill-opacity:1;fill-rule:nonzero;stroke:none"
         transform="matrix(0.13333333,0,0,-0.13333333,0,1188.5067)" />
      <path
         id="path303"
         d="m 8565.28,3248.63 c -5.91,29.7 -129.25,48.08 -137.18,42.39 -7.93,-5.69 8.18,-32.58 26.85,-29.59 18.68,2.99 113.24,-27.44 110.33,-12.8"
         style="fill:#ffb290;fill-opacity:1;fill-rule:nonzero;stroke:none"
         transform="matrix(0.13333333,0,0,-0.13333333,0,1188.5067)" />
      <path
         id="path304"
         d="m 8518.2,3202.06 c 0.22,28.88 -110.14,69.77 -118.55,65.97 -8.4,-3.79 1.32,-32 19.14,-32.8 17.81,-0.8 99.3,-47.4 99.41,-33.17"
         style="fill:#ffb290;fill-opacity:1;fill-rule:nonzero;stroke:none"
         transform="matrix(0.13333333,0,0,-0.13333333,0,1188.5067)" />
      <path
         id="path305"
         d="m 8385.83,840.09 c -1.67,0 -3.28,0.922 -4.08,2.512 -1.9,3.777 -192.59,380.048 -398.67,549.478 -1.95,1.6 -2.22,4.47 -0.63,6.42 1.59,1.93 4.46,2.21 6.4,0.61 207.57,-170.66 399.12,-548.622 401.04,-552.419 1.12,-2.25 0.21,-4.98 -2.02,-6.109 l -2.04,-0.492"
         style="fill:#c60924;fill-opacity:1;fill-rule:nonzero;stroke:none"
         transform="matrix(0.13333333,0,0,-0.13333333,0,1188.5067)" />
      <path
         id="path306"
         d="m 8260.29,1133.01 c -1.54,0 -3.06,0.78 -3.91,2.21 -0.84,1.38 -83.77,139.42 -111.02,168.95 -1.71,1.86 -1.59,4.74 0.25,6.44 1.85,1.7 4.74,1.59 6.44,-0.26 27.89,-30.21 108.71,-164.74 112.14,-170.45 1.29,-2.16 0.59,-4.96 -1.56,-6.25 l -2.34,-0.64"
         style="fill:#c60924;fill-opacity:1;fill-rule:nonzero;stroke:none"
         transform="matrix(0.13333333,0,0,-0.13333333,0,1188.5067)" />
      <path
         id="path307"
         d="m 7951.95,721.699 c -105.11,0 -355.3,20.449 -653.98,186.383 -2.2,1.219 -2.99,3.988 -1.77,6.188 1.22,2.199 4,3 6.19,1.769 391.48,-217.488 698.57,-183.48 701.63,-183.109 2.51,0.281 4.77,-1.481 5.06,-3.969 0.3,-2.5 -1.47,-4.77 -3.97,-5.07 -0.75,-0.09 -19.53,-2.192 -53.16,-2.192"
         style="fill:#c60924;fill-opacity:1;fill-rule:nonzero;stroke:none"
         transform="matrix(0.13333333,0,0,-0.13333333,0,1188.5067)" />
      <path
         id="path308"
         d="m 7888.34,779.648 -0.53,0.032 c -1.01,0.121 -101.85,12.172 -221.82,53.691 -2.37,0.82 -3.63,3.418 -2.81,5.789 0.82,2.371 3.42,3.629 5.79,2.809 118.98,-41.18 218.89,-53.129 219.88,-53.25 2.5,-0.289 4.29,-2.547 4.01,-5.047 -0.28,-2.313 -2.25,-4.024 -4.52,-4.024"
         style="fill:#c60924;fill-opacity:1;fill-rule:nonzero;stroke:none"
         transform="matrix(0.13333333,0,0,-0.13333333,0,1188.5067)" />
      <path
         id="path309"
         d="m 7851.14,1814.14 c -1.42,0 -2.81,0.66 -3.7,1.9 -6.4,8.87 -156.61,218.87 -158.94,351.28 -0.05,2.51 1.97,4.59 4.47,4.63 2.5,-0.01 4.59,-1.95 4.63,-4.47 2.28,-129.56 155.68,-343.97 157.23,-346.12 1.47,-2.04 1.01,-4.89 -1.03,-6.36 -0.82,-0.58 -1.74,-0.86 -2.66,-0.86"
         style="fill:#c60924;fill-opacity:1;fill-rule:nonzero;stroke:none"
         transform="matrix(0.13333333,0,0,-0.13333333,0,1188.5067)" />
      <path
         id="path310"
         d="m 7683.76,2030.34 c -1.58,0 -3.1,0.81 -3.94,2.28 -1.07,1.84 -26.19,46.16 -26.19,127.81 0,2.51 2.04,4.55 4.55,4.55 2.52,0 4.55,-2.04 4.55,-4.55 0,-78.99 24.72,-122.82 24.97,-123.26 1.25,-2.18 0.51,-4.96 -1.67,-6.21 l -2.27,-0.62"
         style="fill:#c60924;fill-opacity:1;fill-rule:nonzero;stroke:none"
         transform="matrix(0.13333333,0,0,-0.13333333,0,1188.5067)" />
      <path
         id="path311"
         d="m 8085.93,1293.41 c -1.68,0 -3.31,0.94 -4.09,2.56 -0.49,0.99 -49.26,101.04 -79.2,179.37 -0.9,2.35 0.28,4.98 2.62,5.88 2.36,0.9 4.98,-0.28 5.88,-2.64 29.8,-77.94 78.4,-177.62 78.89,-178.62 1.09,-2.26 0.16,-4.99 -2.1,-6.08 l -2,-0.47"
         style="fill:#c60924;fill-opacity:1;fill-rule:nonzero;stroke:none"
         transform="matrix(0.13333333,0,0,-0.13333333,0,1188.5067)" />
      <path
         id="path312"
         d="m 6893.05,1656.56 c -72.67,18.61 -138.66,23.09 -197.6,13.59 -3.42,-10.04 -6.95,-20.1 -10.53,-30.09 36.33,7.64 75.76,9.44 118.24,5.14 170.62,-17.28 343.72,-125.77 414.48,-179.26 0.04,10.73 0.26,21.97 0.74,33.65 -70.63,50.99 -197.4,124.21 -325.33,156.97"
         style="fill:#ffac33;fill-opacity:1;fill-rule:nonzero;stroke:none"
         transform="matrix(0.13333333,0,0,-0.13333333,0,1188.5067)" />
      <path
         id="path313"
         d="m 6724.93,1768.32 c -2.18,-8.87 -4.62,-18.05 -7.27,-27.44 171.39,12.87 400.83,-125.55 503.89,-194.85 0.97,10.03 2.14,20.23 3.56,30.56 -54.03,35.82 -135.35,85.6 -223.89,125.26 -106.98,47.92 -199.79,70.02 -276.29,66.47"
         style="fill:#4b90e2;fill-opacity:1;fill-rule:nonzero;stroke:none"
         transform="matrix(0.13333333,0,0,-0.13333333,0,1188.5067)" />
      <path
         id="path314"
         d="m 7263.3,1785.09 c -64.5,-16.4 -81.99,4.37 -61.21,30.6 20.77,26.23 61.21,-30.6 61.21,-30.6"
         style="fill:#ffac33;fill-opacity:1;fill-rule:nonzero;stroke:none"
         transform="matrix(0.13333333,0,0,-0.13333333,0,1188.5067)" />
      <path
         id="path315"
         d="m 7267.67,1792.73 c 0,0 -55.75,36.08 -28.43,54.66 27.34,18.58 36.08,-30.6 28.43,-54.66"
         style="fill:#ffac33;fill-opacity:1;fill-rule:nonzero;stroke:none"
         transform="matrix(0.13333333,0,0,-0.13333333,0,1188.5067)" />
      <path
         id="path316"
         d="m 7276.41,1792.73 c 3.28,20.78 4.43,62.08 24.05,49.19 34.98,-22.95 -24.05,-49.19 -24.05,-49.19"
         style="fill:#ffac33;fill-opacity:1;fill-rule:nonzero;stroke:none"
         transform="matrix(0.13333333,0,0,-0.13333333,0,1188.5067)" />
      <path
         id="path317"
         d="m 7267.67,1778.53 c -5.47,-39.35 -28.43,-64.49 -36.07,-30.61 -7.66,33.89 36.07,30.61 36.07,30.61"
         style="fill:#ffac33;fill-opacity:1;fill-rule:nonzero;stroke:none"
         transform="matrix(0.13333333,0,0,-0.13333333,0,1188.5067)" />
      <path
         id="path318"
         d="m 6892.14,1945.07 c 67.16,0.89 74.92,-21.81 44.59,-41.15 -30.33,-19.36 -44.59,41.15 -44.59,41.15"
         style="fill:#ffac33;fill-opacity:1;fill-rule:nonzero;stroke:none"
         transform="matrix(0.13333333,0,0,-0.13333333,0,1188.5067)" />
      <path
         id="path319"
         d="m 6884.86,1939.06 c 0,0 37.22,-44.94 3.93,-55.91 -33.3,-10.95 -21.07,35.7 -3.93,55.91"
         style="fill:#ffac33;fill-opacity:1;fill-rule:nonzero;stroke:none"
         transform="matrix(0.13333333,0,0,-0.13333333,0,1188.5067)" />
      <path
         id="path320"
         d="m 6876.68,1940.96 c -11.69,-18.18 -29.9,-55.5 -42.92,-39.51 -23.22,28.48 42.92,39.51 42.92,39.51"
         style="fill:#ffac33;fill-opacity:1;fill-rule:nonzero;stroke:none"
         transform="matrix(0.13333333,0,0,-0.13333333,0,1188.5067)" />
      <path
         id="path321"
         d="m 6890.76,1951.98 c 21.44,34.62 53.36,52.49 46.46,20 -6.89,-32.49 -46.46,-20 -46.46,-20"
         style="fill:#ffac33;fill-opacity:1;fill-rule:nonzero;stroke:none"
         transform="matrix(0.13333333,0,0,-0.13333333,0,1188.5067)" />
      <path
         id="path322"
         d="m 7454.77,2001.18 c -4.31,1.54 -5.97,4.7 -5.48,9.12 -138.02,66.55 -229.27,135.32 -281.22,180.9 -6.45,-4.73 -12.79,-9.46 -18.98,-14.17 70.71,-47.86 173.95,-157.16 301.21,-255.87 145.87,99.43 48.39,64.34 4.47,80.02"
         style="fill:#e8d3b8;fill-opacity:1;fill-rule:nonzero;stroke:none"
         transform="matrix(0.13333333,0,0,-0.13333333,0,1188.5067)" />
      <path
         id="path323"
         d="m 7371.73,2310.14 c -21.38,-8.07 -44.28,-18.91 -67.74,-31.58 154.95,46.08 241.48,-49.19 274.93,-131.71 11.85,10.05 23.58,19.83 34.76,29.02 -34.81,43.86 -120.47,121.86 -241.95,134.27"
         style="fill:#ff9433;fill-opacity:1;fill-rule:nonzero;stroke:none"
         transform="matrix(0.13333333,0,0,-0.13333333,0,1188.5067)" />
      <path
         id="path324"
         d="m 6765.55,1875.11 c -11.36,-10.48 -21.26,-20.79 -29.12,-30.84 0.12,-10.46 -1.08,-22.79 -3.3,-36.47 173.95,38.3 411.96,-111.03 502.32,-173.92 4.48,19.81 9.99,39.7 16.75,59.29 -76.67,56.86 -284.1,193.94 -486.65,181.94"
         style="fill:#4b90e2;fill-opacity:1;fill-rule:nonzero;stroke:none"
         transform="matrix(0.13333333,0,0,-0.13333333,0,1188.5067)" />
      <path
         id="path325"
         d="m 7765.12,2822.2 c -58.17,-111.18 -55.96,-271.97 -54.53,-441.88 9.27,52.6 32.13,110 85.91,161.36 12.62,12.05 23.42,24.97 32.6,38.48 20.1,5.36 40.11,14.05 59.72,25.06 -103.4,51.12 -123.7,216.98 -123.7,216.98"
         style="fill:#e8d3b8;fill-opacity:1;fill-rule:nonzero;stroke:none"
         transform="matrix(0.13333333,0,0,-0.13333333,0,1188.5067)" />
      <path
         id="path326"
         d="m 7819.36,2622.36 c -1.98,0 -3.81,1.31 -4.37,3.31 -44.97,158.17 0.08,235.93 2.02,239.16 1.29,2.15 4.08,2.86 6.24,1.57 2.16,-1.29 2.86,-4.09 1.57,-6.24 -0.45,-0.77 -44.85,-78.02 -1.07,-232 0.68,-2.42 -0.73,-4.93 -3.14,-5.62 l -1.25,-0.18"
         style="fill:#e8d3b8;fill-opacity:1;fill-rule:nonzero;stroke:none"
         transform="matrix(0.13333333,0,0,-0.13333333,0,1188.5067)" />
      <path
         id="path327"
         d="m 8123.8,2891.82 c -36.39,0 -80.74,4.55 -133.48,17.39 -2.45,0.6 -3.95,3.07 -3.35,5.51 0.59,2.44 3.06,3.92 5.5,3.34 173.85,-42.34 256.02,8.2 256.84,8.71 2.11,1.36 4.92,0.73 6.28,-1.39 1.35,-2.11 0.73,-4.92 -1.37,-6.28 -2.42,-1.54 -43.95,-27.28 -130.42,-27.28"
         style="fill:#e8d3b8;fill-opacity:1;fill-rule:nonzero;stroke:none"
         transform="matrix(0.13333333,0,0,-0.13333333,0,1188.5067)" />
      <path
         id="path328"
         d="m 8107.63,2916.84 -0.31,0.01 c -1.91,0.12 -47.11,3.57 -74.37,34.05 -1.68,1.87 -1.52,4.74 0.36,6.42 1.87,1.68 4.74,1.52 6.42,-0.35 24.76,-27.67 67.79,-31.01 68.22,-31.04 2.5,-0.18 4.39,-2.36 4.21,-4.86 -0.16,-2.4 -2.15,-4.23 -4.53,-4.23"
         style="fill:#e8d3b8;fill-opacity:1;fill-rule:nonzero;stroke:none"
         transform="matrix(0.13333333,0,0,-0.13333333,0,1188.5067)" />
      <path
         id="path329"
         d="m 7443.45,2432.61 c -16.99,0 -35.01,1.16 -54.02,3.83 -2.48,0.35 -4.23,2.64 -3.88,5.13 0.35,2.49 2.65,4.25 5.15,3.88 151.16,-21.14 237.25,53.93 238.1,54.69 1.87,1.67 4.76,1.51 6.43,-0.37 1.67,-1.88 1.51,-4.75 -0.36,-6.43 -0.77,-0.69 -69.63,-60.73 -191.42,-60.73"
         style="fill:#e8d3b8;fill-opacity:1;fill-rule:nonzero;stroke:none"
         transform="matrix(0.13333333,0,0,-0.13333333,0,1188.5067)" />
      <path
         id="path330"
         d="m 7512.5,2465.84 c -1.97,0 -3.78,1.28 -4.37,3.25 -0.71,2.42 0.67,4.95 3.08,5.67 40.9,12.12 73.25,28.94 73.57,29.11 2.24,1.17 4.98,0.31 6.14,-1.92 1.17,-2.22 0.32,-4.98 -1.91,-6.14 -0.33,-0.17 -33.43,-17.4 -75.21,-29.78 l -1.3,-0.19"
         style="fill:#e8d3b8;fill-opacity:1;fill-rule:nonzero;stroke:none"
         transform="matrix(0.13333333,0,0,-0.13333333,0,1188.5067)" />
      <path
         id="path331"
         d="m 7365.28,2476.69 c -1.44,0 -2.84,0.67 -3.73,1.93 -53.33,75.85 17.62,206.2 20.66,211.72 1.21,2.2 3.98,3 6.18,1.78 2.2,-1.21 3,-3.98 1.78,-6.18 -0.71,-1.3 -71.23,-130.89 -21.17,-202.08 1.45,-2.06 0.95,-4.9 -1.11,-6.34 l -2.61,-0.83"
         style="fill:#e8d3b8;fill-opacity:1;fill-rule:nonzero;stroke:none"
         transform="matrix(0.13333333,0,0,-0.13333333,0,1188.5067)" />
      <path
         id="path332"
         d="m 7338.53,2462.73 c -1.2,0 -2.4,0.48 -3.3,1.43 -42.84,45.23 -35.26,106.9 -34.92,109.5 0.33,2.49 2.6,4.27 5.11,3.92 2.49,-0.33 4.24,-2.61 3.92,-5.11 -0.08,-0.59 -7.29,-60.04 32.5,-102.05 1.73,-1.83 1.65,-4.71 -0.17,-6.44 -0.88,-0.83 -2.02,-1.25 -3.14,-1.25"
         style="fill:#e8d3b8;fill-opacity:1;fill-rule:nonzero;stroke:none"
         transform="matrix(0.13333333,0,0,-0.13333333,0,1188.5067)" />
      <path
         id="path333"
         d="m 7143.26,2251.19 c -1.44,0 -2.85,0.69 -3.74,1.95 -37.99,54.75 -5.92,137 3.53,149.61 2.33,3.11 4.71,3.14 6.3,2.61 2.38,-0.8 3.67,-3.38 2.87,-5.76 -0.37,-1.11 -1.12,-1.99 -2.07,-2.53 -7.08,-9.21 -38.18,-88.25 -3.15,-138.73 1.43,-2.07 0.92,-4.9 -1.14,-6.34 l -2.6,-0.81"
         style="fill:#e8d3b8;fill-opacity:1;fill-rule:nonzero;stroke:none"
         transform="matrix(0.13333333,0,0,-0.13333333,0,1188.5067)" />
      <path
         id="path334"
         d="m 7425.71,2745.2 -2.52,0.76 c -2.1,1.39 -2.67,4.22 -1.27,6.31 4.8,7.17 32.37,33.78 35.51,36.78 1.81,1.75 4.7,1.69 6.43,-0.11 1.74,-1.82 1.68,-4.7 -0.12,-6.45 -12.01,-11.54 -31.03,-30.46 -34.24,-35.27 -0.88,-1.32 -2.32,-2.02 -3.79,-2.02"
         style="fill:#e8d3b8;fill-opacity:1;fill-rule:nonzero;stroke:none"
         transform="matrix(0.13333333,0,0,-0.13333333,0,1188.5067)" />
      <path
         id="path335"
         d="m 7382.32,3001.2 c -53.48,9.3 -182.11,29.44 -226.28,-6.97 -44.17,-36.43 -32.54,-199.15 -68.96,-204.58 -36.42,-5.42 -75.17,57.34 -106.17,35.64 -30.99,-21.69 -47.26,-68.18 -47.26,-68.18 6.97,-44.17 37.2,-55.02 37.2,-55.02 0,0 -10.08,39.52 10.06,76.71 20.15,37.2 49.6,-5.42 106.17,-3.87 56.57,1.54 40.3,103.06 78.27,165.05 37.97,61.99 108.48,55.8 208.45,44.95 99.96,-10.85 109.25,68.19 172.03,92.98 l 27.12,65.87 c -60.44,3.88 -137.16,-151.88 -190.63,-142.58"
         style="fill:#ffac33;fill-opacity:1;fill-rule:nonzero;stroke:none"
         transform="matrix(0.13333333,0,0,-0.13333333,0,1188.5067)" />
      <path
         id="path336"
         d="m 7757.37,3277.84 c -47.27,17.05 -164.28,-22.47 -223.17,-211.55 l 11.63,3.1 c 0,0 73.61,155.76 142.57,182.1 68.97,26.35 106.94,-11.62 110.04,-37.19 0,0 6.2,46.49 -41.07,63.54"
         style="fill:#4b90e2;fill-opacity:1;fill-rule:nonzero;stroke:none"
         transform="matrix(0.13333333,0,0,-0.13333333,0,1188.5067)" />
      <path
         id="path337"
         d="m 7552.22,3031.61 c -53.59,32.58 6.01,81.7 26.44,39.65 20.43,-42.05 34.84,-76.89 -26.44,-39.65"
         style="fill:#ffb290;fill-opacity:1;fill-rule:nonzero;stroke:none"
         transform="matrix(0.13333333,0,0,-0.13333333,0,1188.5067)" />
      <path
         id="path338"
         d="m 7576.86,3051.14 c -1.17,-2.49 -3.69,-4.22 -6.63,-4.22 -4.06,0 -7.36,3.3 -7.36,7.36 0,4.07 3.3,7.36 7.36,7.36 l 1.9,-0.27 -0.45,0.94 c -11.12,22.88 -43.53,-3.84 -14.38,-21.56 27.64,-16.79 26.93,-6.61 19.56,10.39"
         style="fill:#f96d61;fill-opacity:1;fill-rule:nonzero;stroke:none"
         transform="matrix(0.13333333,0,0,-0.13333333,0,1188.5067)" />
      <path
         id="path339"
         d="m 7652.37,3236.19 c -81.94,-13.94 -85.62,9.3 -70.32,25.57 27.31,29.06 70.32,-25.57 70.32,-25.57"
         style="fill:#f4e7d4;fill-opacity:1;fill-rule:nonzero;stroke:none"
         transform="matrix(0.13333333,0,0,-0.13333333,0,1188.5067)" />
      <path
         id="path340"
         d="m 7625.64,3289.07 c 30.94,26.62 23.83,-47.65 23.83,-47.65 0,0 -48.82,26.16 -23.83,47.65"
         style="fill:#f4e7d4;fill-opacity:1;fill-rule:nonzero;stroke:none"
         transform="matrix(0.13333333,0,0,-0.13333333,0,1188.5067)" />
      <path
         id="path341"
         d="m 7662.91,3292.31 c 37.97,-1.38 -13.48,-48.56 -13.48,-48.56 0,0 -16.95,49.66 13.48,48.56"
         style="fill:#f4e7d4;fill-opacity:1;fill-rule:nonzero;stroke:none"
         transform="matrix(0.13333333,0,0,-0.13333333,0,1188.5067)" />
      <path
         id="path342"
         d="m 7645.98,3240.25 c -0.58,-2.9 -9.88,-61.01 -43.01,-49.98 -33.13,11.05 -23.82,24.99 -4.65,34.3 19.18,9.3 47.66,15.68 47.66,15.68"
         style="fill:#f4e7d4;fill-opacity:1;fill-rule:nonzero;stroke:none"
         transform="matrix(0.13333333,0,0,-0.13333333,0,1188.5067)" />
      <path
         id="path343"
         d="m 7660.01,3223.39 c 9.14,-14.21 4.9,-25.61 -15.33,-22.94 -20.23,2.67 -0.45,47.95 -0.45,47.95 0,0 10.71,-17.13 15.78,-25.01"
         style="fill:#f4e7d4;fill-opacity:1;fill-rule:nonzero;stroke:none"
         transform="matrix(0.13333333,0,0,-0.13333333,0,1188.5067)" />
      <path
         id="path344"
         d="m 7641.46,3236.05 c 0,0 37.65,43.73 50.43,22.81 12.78,-20.93 0,-29.64 -13.94,-30.23 -13.96,-0.57 -36.49,7.42 -36.49,7.42"
         style="fill:#f4e7d4;fill-opacity:1;fill-rule:nonzero;stroke:none"
         transform="matrix(0.13333333,0,0,-0.13333333,0,1188.5067)" />
      <path
         id="path345"
         d="m 7640.75,3229.22 c -28.11,-10.04 -18.02,25.57 -0.59,27.31 17.44,1.74 16.86,-21.5 0.59,-27.31"
         style="fill:#ffac33;fill-opacity:1;fill-rule:nonzero;stroke:none"
         transform="matrix(0.13333333,0,0,-0.13333333,0,1188.5067)" />
      <path
         id="path346"
         d="m 7729.66,2968.85 c -25.26,-1.35 -37.98,31.32 -42.62,47.02 -1.24,4.18 1.77,8.4 6.13,8.62 l 67.93,3.58 c 4.46,0.23 7.94,-3.84 6.95,-8.2 -3.68,-16.23 -14.2,-49.73 -38.39,-51.02"
         style="fill:#3d2218;fill-opacity:1;fill-rule:nonzero;stroke:none"
         transform="matrix(0.13333333,0,0,-0.13333333,0,1188.5067)" />
      <path
         id="path347"
         d="m 7763.13,3017.93 c 0.9,3.96 -2.25,7.67 -6.32,7.45 l -61.76,-3.25 c -3.96,-0.21 -6.69,-4.03 -5.57,-7.84 1.63,-5.52 6.43,-13.23 10.5,-20.68 l 56.22,3 c 3.44,7.73 5.65,15.68 6.93,21.32"
         style="fill:#ffffff;fill-opacity:1;fill-rule:nonzero;stroke:none"
         transform="matrix(0.13333333,0,0,-0.13333333,0,1188.5067)" />
      <path
         id="path348"
         d="m 7732.57,3071.72 c 0,0 24.41,-19.18 19.76,-27.9 -4.65,-8.72 -29.64,-8.72 -30.21,-6.97 -0.59,1.73 -1.75,7.55 1.16,8.72 2.9,1.16 16.85,-6.4 22.08,-0.59 5.23,5.81 -12.79,26.74 -12.79,26.74"
         style="fill:#f96d61;fill-opacity:1;fill-rule:nonzero;stroke:none"
         transform="matrix(0.13333333,0,0,-0.13333333,0,1188.5067)" />
      <path
         id="path349"
         d="m 7693.14,3096.22 c -1.7,13.45 -11.71,22.97 -22.34,21.27 -10.65,-1.71 -17.89,-13.99 -16.18,-27.44 1.69,-13.46 11.7,-22.98 22.34,-21.27 10.64,1.7 17.89,13.98 16.18,27.44"
         style="fill:#3d2218;fill-opacity:1;fill-rule:nonzero;stroke:none"
         transform="matrix(0.13333333,0,0,-0.13333333,0,1188.5067)" />
      <path
         id="path350"
         d="m 7797.71,3110.61 c -2.33,13.36 -12.83,22.83 -23.44,21.13 -10.6,-1.7 -17.3,-13.92 -14.97,-27.3 2.34,-13.37 12.84,-22.83 23.44,-21.13 10.61,1.7 17.31,13.92 14.97,27.3"
         style="fill:#3d2218;fill-opacity:1;fill-rule:nonzero;stroke:none"
         transform="matrix(0.13333333,0,0,-0.13333333,0,1188.5067)" />
      <path
         id="path351"
         d="m 7641.91,3081.59 c 10.46,42.43 60.44,29.65 60.44,29.65 0,0 -19.76,23.24 -39.52,12.2 -21.11,-11.8 -20.92,-41.85 -20.92,-41.85"
         style="fill:#3d2218;fill-opacity:1;fill-rule:nonzero;stroke:none"
         transform="matrix(0.13333333,0,0,-0.13333333,0,1188.5067)" />
      <path
         id="path352"
         d="m 7801.53,3109.52 c -14.32,37.75 -56.41,4.19 -56.41,4.19 0,0 14.43,31.33 33.03,28.61 19.88,-2.9 23.38,-32.8 23.38,-32.8"
         style="fill:#3d2218;fill-opacity:1;fill-rule:nonzero;stroke:none"
         transform="matrix(0.13333333,0,0,-0.13333333,0,1188.5067)" />
      <path
         id="path353"
         d="m 7620.41,3094.39 c 27.9,42.42 75.55,54.04 75.55,54.04 l -2.32,23.83 c -49.41,-8.71 -80.79,-69.16 -80.79,-69.16 l 7.56,-8.71"
         style="fill:#662a12;fill-opacity:1;fill-rule:nonzero;stroke:none"
         transform="matrix(0.13333333,0,0,-0.13333333,0,1188.5067)" />
      <path
         id="path354"
         d="m 7817.85,3133.11 c -34.47,31.05 -77.94,25.23 -77.94,25.23 l -4.06,23.88 c 44.21,9.25 86.22,-37.97 86.22,-37.97 l -4.22,-11.14"
         style="fill:#662a12;fill-opacity:1;fill-rule:nonzero;stroke:none"
         transform="matrix(0.13333333,0,0,-0.13333333,0,1188.5067)" />
      <path
         id="path775"
         d="M 4512.82,224.68 H 8679.64 L 6451.14,0 Z"
         style="fill:#ffac33;fill-opacity:1;fill-rule:nonzero;stroke:none"
         transform="matrix(0.13333333,0,0,-0.13333333,0,1188.5067)" />
    </g>
  </g>
</svg>
